<?xml version="1.0" encoding="UTF-8"?>
<level>
  <owner>Fistachka</owner>
  <repo>zabava3</repo>
  <version>v1.0.10</version>
  <next number="1" owner="Fistachka" repo="zabava2"/>
  <readme>
    <ru>cc1fbed7cf713d7500aa4580ec916e896021889138aca837b701d12a8d36dafd</ru>
    <en>1a321c4de12fba8631bbba69ac0e483438403f14b569a052fc6dad4363a87112</en>
  </readme>
  <license>b1b99f5538d1fd3702219bff50c665196dfa42f6ee755c37fe41a6178d6bc6e5</license>
  <exercise number="1">
    <scale>minor</scale>
    <bpm>116</bpm>
    <lowestNote>18</lowestNote>
    <tonalities>1</tonalities>
    <video name="16t.mp4" size="800454" type="video/mp4" volume="0.5">8d9a3388f229708dc8e57e2a8d342cdeb8e1159c57d9aefd4aa862cbda9337dd</video>
    <notes>
      <note number="1" values="18" ticks="58" durationTicks="61" ppq="96" velocity="0.843"/>
      <note number="2" values="48" ticks="123" durationTicks="65" ppq="96" velocity="0.906"/>
      <note number="3" values="78" ticks="197" durationTicks="63" ppq="96" velocity="0.858"/>
      <note number="4" values="68" ticks="286" durationTicks="86" ppq="96" velocity="0.906"/>
    </notes>
  </exercise>
  <exercise number="2">
    <scale>minor</scale>
    <bpm>116</bpm>
    <lowestNote>18</lowestNote>
    <tonalities>1</tonalities>
    <video name="18t.mp4" size="1024988" type="video/mp4" volume="0.5">3c2982a9e43ca549eecdea3edc4e7b0ac32c0bcab4374bca925535b0983b11f7</video>
    <notes>
      <note number="1" values="58" ticks="88" durationTicks="37" ppq="96" velocity="0.843"/>
      <note number="2" values="68" ticks="136" durationTicks="45" ppq="96" velocity="0.906"/>
      <note number="3" values="78" ticks="186" durationTicks="35" ppq="96" velocity="0.85"/>
      <note number="4" values="68" ticks="232" durationTicks="55" ppq="96" velocity="0.906"/>
      <note number="5" values="58" ticks="281" durationTicks="37" ppq="96" velocity="0.906"/>
      <note number="6" values="68" ticks="329" durationTicks="36" ppq="96" velocity="0.906"/>
      <note number="7" values="48" ticks="378" durationTicks="39" ppq="96" velocity="0.906"/>
      <note number="8" values="48" ticks="426" durationTicks="54" ppq="96" velocity="0.906"/>
    </notes>
  </exercise>
  <exercise number="3">
    <scale>minor</scale>
    <bpm>116</bpm>
    <lowestNote>5</lowestNote>
    <tonalities>1</tonalities>
    <video name="19t.mp4" size="564007" type="video/mp4" volume="0.5">cdd1be0bf8d6cae0154f96ec1b04ea0b3dac0cbc21686ce8e9c68344b03a26fc</video>
    <notes>
      <note number="1" values="6" ticks="34" durationTicks="40" ppq="96" velocity="0.843"/>
      <note number="2" values="18" ticks="86" durationTicks="38" ppq="96" velocity="0.906"/>
      <note number="3" values="48" ticks="130" durationTicks="45" ppq="96" velocity="0.858"/>
      <note number="4" values="38" ticks="186" durationTicks="49" ppq="96" velocity="0.906"/>
    </notes>
  </exercise>
  <exercise number="4">
    <scale>minor</scale>
    <bpm>116</bpm>
    <lowestNote>5</lowestNote>
    <tonalities>1</tonalities>
    <video name="20t.mp4" size="906852" type="video/mp4" volume="0.4">53ef1d79f43c60a943de7469a17cee11edc15b55c00a05ee1f95c287428296a8</video>
    <notes>
      <note number="1" values="38" ticks="101" durationTicks="27" ppq="96" velocity="0.843"/>
      <note number="2" values="38" ticks="138" durationTicks="34" ppq="96" velocity="0.906"/>
      <note number="3" values="48" ticks="187" durationTicks="35" ppq="96" velocity="0.85"/>
      <note number="4" values="28" ticks="233" durationTicks="43" ppq="96" velocity="0.906"/>
      <note number="5" values="38" ticks="284" durationTicks="37" ppq="96" velocity="0.906"/>
      <note number="6" values="48" ticks="331" durationTicks="36" ppq="96" velocity="0.906"/>
      <note number="7" values="58" ticks="384" durationTicks="72" ppq="96" velocity="0.906"/>
    </notes>
  </exercise>
  <exercise number="5">
    <scale>minor</scale>
    <bpm>116</bpm>
    <lowestNote>58</lowestNote>
    <tonalities>1</tonalities>
    <video name="21t.mp4" size="580832" type="video/mp4" volume="0.5">9c4d9f5892bacf95d238c35258beb2a71c4a808abae4f163753ffced5b880335</video>
    <notes>
      <note number="1" values="58" ticks="55" durationTicks="46" ppq="96" velocity="0.843"/>
      <note number="2" values="58" ticks="114" durationTicks="50" ppq="96" velocity="0.906"/>
      <note number="3" values="188" ticks="174" durationTicks="45" ppq="96" velocity="0.858"/>
      <note number="4" values="188" ticks="233" durationTicks="86" ppq="96" velocity="0.906"/>
    </notes>
  </exercise>
  <exercise number="6">
    <scale>minor</scale>
    <bpm>116</bpm>
    <lowestNote>58</lowestNote>
    <tonalities>1</tonalities>
    <video name="22t.mp4" size="1038112" type="video/mp4" volume="0.5">9c36cecea42b1e732d8decd86fe9183cc3dbc4321828fe962b473839ab1894e3</video>
    <notes>
      <note number="1" values="188" ticks="86" durationTicks="37" ppq="96" velocity="0.843"/>
      <note number="2" values="188" ticks="134" durationTicks="45" ppq="96" velocity="0.906"/>
      <note number="3" values="288" ticks="184" durationTicks="48" ppq="96" velocity="0.85"/>
      <note number="4" values="188" ticks="236" durationTicks="42" ppq="96" velocity="0.906"/>
      <note number="5" values="78" ticks="279" durationTicks="61" ppq="96" velocity="0.906"/>
      <note number="6" values="188" ticks="327" durationTicks="36" ppq="96" velocity="0.906"/>
      <note number="7" values="58" ticks="376" durationTicks="39" ppq="96" velocity="0.906"/>
      <note number="8" values="58" ticks="424" durationTicks="54" ppq="96" velocity="0.906"/>
    </notes>
  </exercise>
  <exercise number="7">
    <scale>minor</scale>
    <bpm>116</bpm>
    <lowestNote>18</lowestNote>
    <tonalities>1</tonalities>
    <video name="23t.mp4" size="1254602" type="video/mp4" volume="0.5">a6411d52d5a68a6929a92f1e60b34e761638afe82a23383ab3e6f47fbc4959ff</video>
    <notes>
      <note number="1" values="68" ticks="40" durationTicks="26" ppq="96" velocity="0.843"/>
      <note number="2" values="58" ticks="73" durationTicks="27" ppq="96" velocity="0.906"/>
      <note number="3" values="18" ticks="101" durationTicks="85" ppq="96" velocity="0.858"/>
      <note number="4" values="48" ticks="196" durationTicks="93" ppq="96" velocity="0.906"/>
    </notes>
  </exercise>
  <exercise number="8">
    <scale>minor</scale>
    <bpm>116</bpm>
    <lowestNote>18</lowestNote>
    <tonalities>1</tonalities>
    <video name="24t.mp4" size="1780105" type="video/mp4" volume="0.5">f31edd7d4f0022e1d44e9e84f129693d450bb79072b29257aef977db2b7f7bb3</video>
    <notes>
      <note number="1" values="38" ticks="48" durationTicks="34" ppq="96" velocity="0.843"/>
      <note number="2" values="38" ticks="96" durationTicks="45" ppq="96" velocity="0.906"/>
      <note number="3" values="28" ticks="153" durationTicks="35" ppq="96" velocity="0.85"/>
      <note number="4" values="28" ticks="199" durationTicks="46" ppq="96" velocity="0.906"/>
      <note number="5" values="48" ticks="254" durationTicks="37" ppq="96" velocity="0.906"/>
      <note number="6" values="38" ticks="300" durationTicks="36" ppq="96" velocity="0.906"/>
      <note number="7" values="18" ticks="359" durationTicks="39" ppq="96" velocity="0.906"/>
    </notes>
  </exercise>
</level>
